<svg xmlns="http://www.w3.org/2000/svg" width="167" height="32" fill="none"><clipPath id="a"><circle cx="15" cy="16" r="15"/></clipPath><g clip-path="url(#a)"><path fill="#FC3F1D" d="M0 1h30v30H0z"/><path d="M17.212 9.4h-1.518c-2.603 0-3.904 1.302-3.904 3.254 0 2.168.868 3.253 2.82 4.554l1.518 1.084-4.338 6.723H8.32l4.12-6.072c-2.385-1.735-3.686-3.253-3.686-6.072 0-3.47 2.386-5.856 6.94-5.856h4.554v18h-3.036V9.401z" fill="#fff"/></g><clipPath id="b"><circle cx="47" cy="16" r="15"/></clipPath><g clip-path="url(#b)"><path transform="translate(32 1)" fill="url(#paint0_linear)" d="M0 0h30v30H0z"/><path d="M32 26.982l7.161-8.547-1.754 6.694 5.434 1.968 8.074-11.509-1.769 6.582 4.402 2.547L62 16.258v-6.96l-5.994 6.005 1.33-7.558-5.541-2.023-7.97 11.37.794-5.16-4.342-2.504L32 19.298v7.684z" fill="#000"/></g><path d="M77.957 27h3.25l4.616-17.063V27h3.705V4.413h-5.103l-4.582 16.64-4.518-16.64h-5.2V27h3.218V9.937L77.957 27zm27.049-11.148c0-3.965-2.015-5.46-6.11-5.46-2.567 0-4.582.813-5.752 1.495v3.218c1.04-.78 3.315-1.625 5.297-1.625 1.853 0 2.698.65 2.698 2.405v.91h-.618c-5.915 0-8.547 1.95-8.547 5.265 0 3.315 2.015 5.168 5.005 5.168 2.275 0 3.25-.748 3.997-1.528h.163c.032.422.162.975.292 1.3h3.77a41.145 41.145 0 01-.195-3.997v-7.15zm-3.867 7.248c-.488.715-1.398 1.3-2.763 1.3-1.625 0-2.437-.975-2.437-2.438 0-1.917 1.332-2.6 4.647-2.6h.553V23.1zm10.552-12.448h-3.575v21.06h3.867v-6.63c.975 1.463 2.405 2.243 4.063 2.243 3.77 0 6.37-3.023 6.37-8.515 0-5.46-2.535-8.482-6.175-8.482-1.82 0-3.315.845-4.355 2.437l-.195-2.113zm3.38 13.618c-2.048 0-3.088-1.657-3.088-5.427 0-3.803 1.105-5.46 3.283-5.46 2.112 0 3.152 1.657 3.152 5.427 0 3.803-1.105 5.46-3.347 5.46zM134.588 27h4.387l-6.207-8.808 5.46-7.54h-3.9l-5.46 7.54v-7.54H125V27h3.868v-8.027l5.72 8.027zm17.398-1.105v-3.152c-1.203.812-3.218 1.527-5.103 1.527-2.827 0-3.9-1.332-4.062-4.063h9.327V18.16c0-5.688-2.502-7.832-6.37-7.832-4.712 0-6.955 3.607-6.955 8.547 0 5.688 2.795 8.45 7.735 8.45 2.47 0 4.29-.65 5.428-1.43zm-6.273-12.512c1.918 0 2.503 1.592 2.503 3.64v.325h-5.395c.097-2.6 1.04-3.965 2.892-3.965zm20.194.325v-3.056h-12.968v3.056h4.55V27h3.868V13.707h4.55z" fill="#000"/><defs><linearGradient id="paint0_linear" x1="15" y1="-7.139" x2="15" y2="32.848" gradientUnits="userSpaceOnUse"><stop stop-color="#FFE55B"/><stop offset="1" stop-color="#FC0"/></linearGradient></defs></svg>